<svg width="1905" height="1021" viewBox="0 0 1905 1021" fill="none" xmlns="http://www.w3.org/2000/svg">
<g clip-path="url(#clip0_5_1691)">
<path d="M1915 0H0V1158H1915V0Z" fill="#121212"/>
<path d="M170.222 931.804L365.978 1034.29V1239.25L170.222 1341.74L-25.5333 1239.25V1034.29L170.222 931.804Z" stroke="#7843E9" stroke-width="2"/>
<path d="M80.8556 457.41L233.843 537.505V697.695L80.8556 777.79L-72.1317 697.695V537.505L80.8556 457.41Z" stroke="#7843E9" stroke-width="2"/>
<path d="M968.139 752.7L1143.26 844.375V1027.73L968.139 1119.4L793.023 1027.73V844.375L968.139 752.7Z" stroke="#7843E9" stroke-width="2"/>
<path d="M1825.63 119.66L2015.43 219.055V417.845L1825.63 517.24L1635.84 417.845V219.055L1825.63 119.66Z" stroke="#7843E9" stroke-width="2"/>
<path d="M1821.38 920.61L1946.7 986.23V1117.47L1821.38 1183.09L1696.05 1117.47V986.23L1821.38 920.61Z" stroke="#7843E9" stroke-width="2"/>
<path d="M1149 341.61L1277.94 409.16V544.26L1149 611.81L1020.06 544.26V409.16L1149 341.61Z" stroke="#7843E9" stroke-width="2"/>
<path d="M885.156 -98.4297L1043.67 -15.4397V150.54L885.156 233.53L726.636 150.54V-15.4397L885.156 -98.4297Z" stroke="#7843E9" stroke-width="2"/>
<path d="M265.972 59.8301L409.597 135.1V285.64L265.972 360.91L122.347 285.64V135.1L265.972 59.8301Z" stroke="#7843E9" stroke-width="2"/>
<path d="M1412.84 696.73L1541.79 764.28V899.38L1412.84 966.93L1283.9 899.38V764.28L1412.84 696.73Z" stroke="#7843E9" stroke-width="2"/>
<path d="M644.717 384.07L783.022 456.445V601.195L644.717 673.57L506.411 601.195V456.445L644.717 384.07Z" stroke="#7843E9" stroke-width="2"/>
<path d="M1434.12 -148.61L1622.01 -50.1799V146.68L1434.12 245.11L1246.24 146.68V-50.1799L1434.12 -148.61Z" stroke="#7843E9" stroke-width="2"/>
</g>
<defs>
<clipPath id="clip0_5_1691">
<rect width="1915" height="1158" fill="white"/>
</clipPath>
</defs>
</svg>
